# xmcd CD database file
#
# Track frame offsets:
#	180
#	11506
#	24917
#	39976
#	55760
#	66915
#	78467
#	93241
#	105038
#	118893
#	132159
#	147253
#	160116
#
# Disc length: 2344 seconds
#
# Revision: 0
# Processed by: cddbd v1.5.1PL0 Copyright (c) Steve Scherf et al.
# Submitted via: CDex 1.51
#
DISCID=9909260d
DTITLE=Les Brown - Les Brown
DYEAR=1996
DGENRE=Country
TTITLE0=Night Owl
TTITLE1=Heartbeat
TTITLE2=Little Ole You
TTITLE3=Tender Touch
TTITLE4=About Cowboy Song
TTITLE5=Just A Little Bit
TTITLE6=Gonna Take A Shortcut
TTITLE7=Listen To The Radio
TTITLE8=Riverboat Queen
TTITLE9=Keepin' Up With The Jones
TTITLE10=The Way You Do
TTITLE11=Cover Up
TTITLE12=Let' Stick Together
EXTD=YEAR: 1996
EXTT0=
EXTT1=
EXTT2=
EXTT3=
EXTT4=
EXTT5=
EXTT6=
EXTT7=
EXTT8=
EXTT9=
EXTT10=
EXTT11=
EXTT12=
PLAYORDER=
